<?xml version="1.0" encoding="UTF-8" standalone="no"?>
<!DOCTYPE svg PUBLIC "-//W3C//DTD SVG 1.1//EN" "http://www.w3.org/Graphics/SVG/1.1/DTD/svg11.dtd">
<svg width="100%" height="100%" viewBox="0 0 100 100" version="1.1" xmlns="http://www.w3.org/2000/svg" xmlns:xlink="http://www.w3.org/1999/xlink" xml:space="preserve" xmlns:serif="http://www.serif.com/" style="fill-rule:evenodd;clip-rule:evenodd;stroke-linejoin:round;stroke-miterlimit:2;">
    <g id="Artboard1" transform="matrix(0.0495295,0,0,0.0495295,18.2764,16.9391)">
        <rect x="-369" y="-342" width="2019" height="2019" style="fill:none;"/>
        <clipPath id="_clip1">
            <rect x="-369" y="-342" width="2019" height="2019"/>
        </clipPath>
        <g clip-path="url(#_clip1)">
            <g transform="matrix(1.48347,0,0,1.48347,-281.475,-207.004)">
                <g transform="matrix(1,0,0,1,-369,-342)">
                    <path d="M1671,388.856L1671,1474.14C1671,1550.23 1609.23,1612 1533.14,1612L447.856,1612C371.771,1612 310,1550.23 310,1474.14L310,388.856C310,312.771 371.771,251 447.856,251L1533.14,251C1609.23,251 1671,312.771 1671,388.856Z" style="fill:white;"/>
                </g>
                <g transform="matrix(3.20094,0,0,3.20094,754.708,1035.53)">
                    <path d="M0,-277.802L0,-257.914L33.373,-249.529L39.965,-241.267L39.965,-81.881L-126.493,-278.881L-127.365,-279.913L-176.56,-279.913L-176.56,-265.018L-149.305,-234.419L-149.305,-27.703L-186.104,-17.415L-186.104,0.016L-80.644,0.016L-80.644,-17.519L-113.29,-26.151L-120.048,-34.474L-120.048,-200.713L50.318,2.111L69.95,2.111L69.95,-248.48L106.935,-259.673L106.935,-277.802L0,-277.802Z" style="fill:rgb(78,42,132);fill-rule:nonzero;"/>
                </g>
            </g>
        </g>
    </g>
</svg>
